<?xml version="1.0" encoding="utf-8"?>
<!-- Generator: Adobe Illustrator 27.5.0, SVG Export Plug-In . SVG Version: 6.00 Build 0)  -->
<svg version="1.1" id="Layer_1" xmlns="http://www.w3.org/2000/svg" xmlns:xlink="http://www.w3.org/1999/xlink" x="0px" y="0px"
	 viewBox="0 0 144 144" style="enable-background:new 0 0 144 144;" xml:space="preserve">
<style type="text/css">
	.st0{fill:#A71AD9;}
	.st1{fill:#091F2C;}
</style>
<g>
	<path class="st0" d="M104.6,48.2H84l19.1-7.9l-1.8-4.4l-19.2,7.9l14.7-14.7l-3.3-3.3L78.8,40.5l7.9-19.1l-4.4-1.8l-8,19.2V18h-4.7
		v20.7l-7.9-19.1l-4.4,1.8l7.9,19.2L50.6,25.9l-3.3,3.3l14.6,14.6l-19.1-7.9L41,40.3l19.2,8H39.4V53H60l-19.1,7.9l1.8,4.4l19.2-7.9
		L47.3,72l3.3,3.3l14.6-14.6l-7.9,19.1l4.4,1.8l8-19.2v20.8h4.7V62.6l7.9,19.1l4.4-1.8l-7.9-19.2l14.7,14.7l3.3-3.3L82.1,57.4
		l19.1,7.9L103,61l-19.2-8h20.8V48.2z M77.6,51.2c-1.2,0.5-2.3,1.3-3.2,2.2c-0.5,0.5-0.9,1.1-1.3,1.7c-0.5,0.9-0.9,1.9-1.1,2.9
		c-0.1-0.6-0.3-1.2-0.5-1.7c-0.9-2.3-2.7-4.2-5-5.2c-0.1,0-0.1-0.1-0.2-0.1c-0.6-0.2-1.7-0.5-1.7-0.5s1.4-0.4,2-0.6
		c0.4-0.2,0.7-0.3,1.1-0.5c0.6-0.3,1.1-0.8,1.6-1.2c1.5-1.3,2.5-3.1,2.9-5.1c0.6,3.1,2.7,5.6,5.6,6.9c0.6,0.2,2,0.6,2,0.6
		S78.1,51,77.6,51.2z"/>
	<g>
		<g>
			<path class="st1" d="M27.5,107.6V96h-5v-2.6h13.2V96h-5v11.6H27.5z"/>
			<path class="st1" d="M39.6,107.8c-1.2,0-2.3-0.2-3.2-0.6c-0.9-0.4-1.5-1-2-1.7c-0.5-0.8-0.7-1.8-0.7-3c0-1.2,0.2-2.2,0.7-3
				c0.4-0.8,1.1-1.4,2-1.8c0.9-0.4,1.9-0.6,3.1-0.6c1.2,0,2.2,0.2,3.1,0.6c0.8,0.4,1.5,1,1.9,1.7c0.4,0.8,0.6,1.7,0.6,2.9v0.8h-8.4
				c0,0.6,0.2,1.1,0.4,1.5c0.2,0.4,0.5,0.7,1,0.9c0.4,0.2,1,0.3,1.6,0.3c0.3,0,0.6,0,0.9-0.1c0.3-0.1,0.6-0.2,0.8-0.3
				c0.2-0.1,0.4-0.3,0.6-0.5c0.2-0.2,0.2-0.5,0.3-0.8H45c0,0.6-0.1,1.1-0.4,1.6c-0.3,0.5-0.6,0.9-1.1,1.2c-0.5,0.3-1,0.6-1.7,0.8
				C41.1,107.7,40.4,107.8,39.6,107.8z M36.7,101.4h5.4c0-0.4-0.1-0.7-0.2-1c-0.1-0.3-0.3-0.5-0.5-0.7c-0.2-0.2-0.5-0.3-0.8-0.4
				c-0.3-0.1-0.6-0.1-1-0.1c-0.6,0-1,0.1-1.4,0.2c-0.4,0.2-0.7,0.4-1,0.7C36.9,100.6,36.8,100.9,36.7,101.4z"/>
			<path class="st1" d="M50.5,107.8c-0.5,0-0.9,0-1.4-0.1c-0.5-0.1-0.9-0.2-1.2-0.4c-0.4-0.2-0.7-0.5-0.9-0.9
				c-0.2-0.4-0.3-0.9-0.3-1.5c0-0.8,0.2-1.4,0.6-1.8c0.4-0.5,0.9-0.8,1.6-1.1c0.7-0.2,1.5-0.4,2.5-0.5c0.9-0.1,2-0.1,3.1-0.1v-0.6
				c0-0.3-0.1-0.6-0.2-0.9c-0.2-0.2-0.4-0.4-0.7-0.5c-0.3-0.1-0.8-0.2-1.3-0.2c-0.5,0-0.9,0-1.2,0.1c-0.3,0.1-0.6,0.2-0.8,0.4
				c-0.2,0.1-0.3,0.3-0.3,0.5v0.2h-2.8c0-0.1,0-0.1,0-0.2c0-0.1,0-0.1,0-0.2c0-0.6,0.2-1.1,0.6-1.6c0.4-0.4,1-0.8,1.8-1
				c0.8-0.2,1.7-0.4,2.8-0.4c1.1,0,2,0.1,2.7,0.3c0.7,0.2,1.3,0.6,1.7,1.1c0.4,0.5,0.6,1.1,0.6,1.9v4.4c0,0.2,0.1,0.4,0.2,0.5
				c0.1,0.1,0.3,0.2,0.5,0.2h0.8v1.8c-0.2,0.1-0.4,0.1-0.7,0.2c-0.3,0.1-0.7,0.1-1.1,0.1c-0.5,0-0.9-0.1-1.2-0.2
				c-0.3-0.1-0.6-0.3-0.7-0.5c-0.2-0.2-0.3-0.5-0.4-0.7h-0.1c-0.3,0.3-0.6,0.5-1,0.8s-0.8,0.4-1.4,0.5
				C51.6,107.8,51.1,107.8,50.5,107.8z M51.3,105.8c0.4,0,0.7,0,1.1-0.1c0.4-0.1,0.7-0.2,1-0.4c0.3-0.2,0.5-0.4,0.7-0.6
				c0.2-0.3,0.3-0.5,0.3-0.9v-0.6c-1.1,0-1.9,0-2.7,0.1c-0.7,0.1-1.3,0.3-1.7,0.5c-0.4,0.2-0.6,0.5-0.6,0.9c0,0.3,0.1,0.5,0.2,0.6
				c0.2,0.1,0.4,0.3,0.7,0.3C50.7,105.7,51,105.8,51.3,105.8z"/>
			<path class="st1" d="M66,107.8c-1.2,0-2.2-0.2-3.1-0.6c-0.8-0.4-1.5-1-1.9-1.8c-0.4-0.8-0.7-1.8-0.7-3c0-1.2,0.2-2.2,0.7-3
				c0.4-0.8,1.1-1.4,1.9-1.8c0.8-0.4,1.9-0.6,3.1-0.6c0.8,0,1.5,0.1,2.1,0.3c0.6,0.2,1.2,0.4,1.7,0.8c0.5,0.3,0.9,0.8,1.1,1.3
				c0.3,0.5,0.4,1.1,0.4,1.8h-2.9c0-0.5-0.1-0.8-0.3-1.1c-0.2-0.3-0.5-0.5-0.9-0.7c-0.4-0.2-0.8-0.2-1.3-0.2c-0.6,0-1.1,0.1-1.5,0.3
				c-0.4,0.2-0.7,0.6-0.9,1c-0.2,0.4-0.3,1-0.3,1.6v0.4c0,0.6,0.1,1.2,0.3,1.6c0.2,0.4,0.5,0.8,0.9,1c0.4,0.2,1,0.3,1.6,0.3
				c0.5,0,0.9-0.1,1.3-0.2c0.4-0.2,0.7-0.4,0.9-0.7c0.2-0.3,0.3-0.7,0.3-1.1h2.7c0,0.7-0.1,1.3-0.4,1.8c-0.3,0.5-0.6,1-1.1,1.3
				c-0.5,0.4-1,0.6-1.7,0.8C67.5,107.7,66.8,107.8,66,107.8z"/>
			<path class="st1" d="M72.9,107.6V93.4h2.9v5.3h0.1c0.3-0.3,0.6-0.6,1-0.8c0.4-0.2,0.8-0.4,1.2-0.5s0.9-0.2,1.3-0.2
				c0.8,0,1.5,0.1,2.1,0.4c0.6,0.3,1,0.7,1.3,1.3c0.3,0.6,0.5,1.3,0.5,2.2v6.5h-2.9v-6.1c0-0.4,0-0.7-0.1-0.9
				c-0.1-0.3-0.2-0.5-0.4-0.6c-0.2-0.2-0.4-0.3-0.7-0.4c-0.3-0.1-0.5-0.1-0.9-0.1c-0.5,0-0.9,0.1-1.3,0.3c-0.4,0.2-0.7,0.5-0.9,0.9
				c-0.2,0.4-0.4,0.8-0.4,1.3v5.6H72.9z"/>
			<path class="st1" d="M90.3,107.6V93.4h11.3V96h-8.2v4h6.8v2.5h-6.8v5.1H90.3z"/>
			<path class="st1" d="M107.6,107.8c-1.2,0-2.3-0.2-3.1-0.6c-0.9-0.4-1.5-1-2-1.8c-0.5-0.8-0.7-1.8-0.7-3c0-1.2,0.2-2.2,0.7-3
				c0.5-0.8,1.1-1.4,2-1.8c0.9-0.4,1.9-0.6,3.1-0.6c1.2,0,2.3,0.2,3.1,0.6c0.9,0.4,1.5,1,2,1.8c0.5,0.8,0.7,1.8,0.7,3
				c0,1.2-0.2,2.2-0.7,3c-0.5,0.8-1.1,1.4-2,1.8C109.9,107.6,108.8,107.8,107.6,107.8z M107.6,105.7c0.6,0,1.2-0.1,1.6-0.3
				c0.4-0.2,0.7-0.6,1-1c0.2-0.4,0.3-1,0.3-1.6v-0.4c0-0.6-0.1-1.2-0.3-1.6c-0.2-0.4-0.5-0.8-1-1c-0.4-0.2-1-0.3-1.6-0.3
				c-0.6,0-1.2,0.1-1.6,0.3c-0.4,0.2-0.7,0.6-0.9,1c-0.2,0.4-0.3,1-0.3,1.6v0.4c0,0.6,0.1,1.2,0.3,1.6c0.2,0.4,0.5,0.8,0.9,1
				C106.4,105.6,107,105.7,107.6,105.7z"/>
			<path class="st1" d="M115,107.6V97.4h2.3l0.2,1.7h0.2c0.1-0.4,0.3-0.7,0.6-1c0.2-0.3,0.5-0.5,0.9-0.7c0.4-0.2,0.8-0.3,1.2-0.3
				c0.2,0,0.4,0,0.6,0.1c0.2,0,0.4,0.1,0.5,0.1v2.5h-1.1c-0.5,0-0.8,0.1-1.2,0.2c-0.3,0.1-0.6,0.3-0.8,0.6s-0.4,0.5-0.5,0.9
				c-0.1,0.3-0.2,0.7-0.2,1.1v4.9H115z"/>
		</g>
		<g>
			<path class="st1" d="M29.1,126l5.8-13.3h3.6l5.8,13.3h-3.4l-1.1-2.5h-6.6l-1.1,2.5H29.1z M34.4,121.1H39l-1.3-3.1
				c-0.1-0.1-0.1-0.3-0.2-0.5c-0.1-0.2-0.2-0.5-0.3-0.7c-0.1-0.3-0.2-0.5-0.3-0.7c-0.1-0.2-0.1-0.4-0.2-0.5h-0.1
				c-0.1,0.3-0.2,0.5-0.3,0.9c-0.1,0.3-0.2,0.6-0.4,0.9c-0.1,0.3-0.2,0.5-0.3,0.7L34.4,121.1z"/>
			<path class="st1" d="M46,126v-10.2h2.3l0.2,1.6h0.2c0.3-0.4,0.6-0.7,1-1c0.4-0.3,0.8-0.5,1.3-0.6c0.5-0.1,0.9-0.2,1.4-0.2
				c0.8,0,1.5,0.1,2,0.4c0.6,0.3,1,0.7,1.2,1.4h0.2c0.3-0.4,0.6-0.7,1-1c0.4-0.3,0.8-0.5,1.3-0.6c0.5-0.1,0.9-0.2,1.4-0.2
				c0.8,0,1.4,0.1,2,0.4c0.5,0.3,1,0.7,1.3,1.3c0.3,0.6,0.4,1.3,0.4,2.2v6.6h-2.8v-6.1c0-0.4,0-0.7-0.1-0.9
				c-0.1-0.3-0.2-0.5-0.4-0.6c-0.2-0.2-0.4-0.3-0.6-0.3c-0.2-0.1-0.5-0.1-0.8-0.1c-0.4,0-0.8,0.1-1.2,0.3c-0.4,0.2-0.6,0.5-0.9,0.9
				c-0.2,0.4-0.3,0.8-0.3,1.3v5.6h-2.9v-6.1c0-0.4,0-0.7-0.1-0.9c-0.1-0.3-0.2-0.5-0.4-0.6c-0.2-0.2-0.4-0.3-0.6-0.3
				c-0.2-0.1-0.5-0.1-0.8-0.1c-0.4,0-0.8,0.1-1.2,0.3c-0.4,0.2-0.7,0.5-0.9,0.9c-0.2,0.4-0.3,0.8-0.3,1.3v5.6H46z"/>
			<path class="st1" d="M70.5,126c-1.2,0-2.3-0.2-3.2-0.6c-0.9-0.4-1.5-1-2-1.7c-0.5-0.8-0.7-1.8-0.7-3c0-1.2,0.2-2.2,0.7-3
				c0.4-0.8,1.1-1.4,2-1.8c0.9-0.4,1.9-0.6,3.1-0.6c1.2,0,2.2,0.2,3.1,0.6c0.8,0.4,1.5,1,1.9,1.7c0.4,0.8,0.6,1.7,0.6,2.9v0.8h-8.4
				c0,0.6,0.2,1.1,0.4,1.5c0.2,0.4,0.5,0.7,1,0.9c0.4,0.2,1,0.3,1.6,0.3c0.3,0,0.6,0,0.9-0.1c0.3-0.1,0.6-0.2,0.8-0.3
				c0.2-0.1,0.4-0.3,0.6-0.5c0.2-0.2,0.2-0.5,0.3-0.8H76c0,0.6-0.1,1.1-0.4,1.6c-0.3,0.5-0.6,0.9-1.1,1.2c-0.5,0.3-1,0.6-1.7,0.8
				C72.1,125.9,71.3,126,70.5,126z M67.6,119.6H73c0-0.4-0.1-0.7-0.2-1c-0.1-0.3-0.3-0.5-0.5-0.7c-0.2-0.2-0.5-0.3-0.8-0.4
				c-0.3-0.1-0.6-0.1-1-0.1c-0.6,0-1,0.1-1.4,0.2c-0.4,0.2-0.7,0.4-1,0.7C67.9,118.7,67.7,119.1,67.6,119.6z"/>
			<path class="st1" d="M77.6,126v-10.2h2.3l0.2,1.7h0.2c0.1-0.4,0.3-0.7,0.6-1c0.2-0.3,0.5-0.5,0.9-0.7c0.4-0.2,0.8-0.3,1.2-0.3
				c0.2,0,0.4,0,0.6,0.1c0.2,0,0.4,0.1,0.5,0.1v2.5H83c-0.5,0-0.8,0.1-1.2,0.2c-0.3,0.1-0.6,0.3-0.8,0.6s-0.4,0.5-0.5,0.9
				c-0.1,0.3-0.2,0.7-0.2,1.1v4.9H77.6z"/>
			<path class="st1" d="M85.8,114.3V112h2.9v2.3H85.8z M85.8,126v-10.2h2.9V126H85.8z"/>
			<path class="st1" d="M95.9,126c-1.2,0-2.2-0.2-3.1-0.6c-0.8-0.4-1.5-1-1.9-1.8c-0.4-0.8-0.7-1.8-0.7-3s0.2-2.2,0.7-3
				c0.4-0.8,1.1-1.4,1.9-1.8c0.8-0.4,1.9-0.6,3.1-0.6c0.8,0,1.5,0.1,2.1,0.3c0.6,0.2,1.2,0.4,1.7,0.8c0.5,0.3,0.9,0.8,1.1,1.3
				c0.3,0.5,0.4,1.1,0.4,1.8h-2.9c0-0.5-0.1-0.8-0.3-1.1c-0.2-0.3-0.5-0.5-0.9-0.7c-0.4-0.2-0.8-0.2-1.3-0.2c-0.6,0-1.1,0.1-1.5,0.3
				c-0.4,0.2-0.7,0.6-0.9,1c-0.2,0.4-0.3,1-0.3,1.6v0.4c0,0.6,0.1,1.2,0.3,1.6c0.2,0.4,0.5,0.8,0.9,1c0.4,0.2,1,0.3,1.6,0.3
				c0.5,0,0.9-0.1,1.3-0.2c0.4-0.2,0.7-0.4,0.9-0.7c0.2-0.3,0.3-0.7,0.3-1.1h2.7c0,0.7-0.1,1.3-0.4,1.8c-0.3,0.5-0.6,1-1.1,1.3
				c-0.5,0.4-1,0.6-1.7,0.8C97.4,125.9,96.6,126,95.9,126z"/>
			<path class="st1" d="M106.6,126c-0.5,0-0.9,0-1.4-0.1c-0.5-0.1-0.9-0.2-1.2-0.4c-0.4-0.2-0.7-0.5-0.9-0.9
				c-0.2-0.4-0.3-0.9-0.3-1.5c0-0.8,0.2-1.4,0.6-1.8c0.4-0.5,0.9-0.8,1.6-1.1c0.7-0.2,1.5-0.4,2.5-0.5c0.9-0.1,2-0.1,3.1-0.1V119
				c0-0.3-0.1-0.6-0.2-0.9c-0.2-0.2-0.4-0.4-0.7-0.5c-0.3-0.1-0.8-0.2-1.3-0.2c-0.5,0-0.9,0-1.2,0.1c-0.3,0.1-0.6,0.2-0.8,0.4
				c-0.2,0.1-0.3,0.3-0.3,0.5v0.2h-2.8c0-0.1,0-0.1,0-0.2c0-0.1,0-0.1,0-0.2c0-0.6,0.2-1.1,0.6-1.6c0.4-0.4,1-0.8,1.8-1
				c0.8-0.2,1.7-0.4,2.8-0.4c1.1,0,2,0.1,2.7,0.3c0.7,0.2,1.3,0.6,1.7,1.1c0.4,0.5,0.6,1.1,0.6,1.9v4.4c0,0.2,0.1,0.4,0.2,0.5
				c0.1,0.1,0.3,0.2,0.5,0.2h0.8v1.8c-0.2,0.1-0.4,0.1-0.7,0.2c-0.3,0.1-0.7,0.1-1.1,0.1c-0.5,0-0.9-0.1-1.2-0.2
				c-0.3-0.1-0.6-0.3-0.7-0.5c-0.2-0.2-0.3-0.5-0.4-0.7h-0.1c-0.3,0.3-0.6,0.5-1,0.8c-0.4,0.2-0.8,0.4-1.4,0.5
				C107.8,125.9,107.2,126,106.6,126z M107.5,123.9c0.4,0,0.7,0,1.1-0.1c0.4-0.1,0.7-0.2,1-0.4c0.3-0.2,0.5-0.4,0.7-0.6
				c0.2-0.3,0.3-0.5,0.3-0.9v-0.6c-1.1,0-1.9,0-2.7,0.1c-0.7,0.1-1.3,0.3-1.7,0.5c-0.4,0.2-0.6,0.5-0.6,0.9c0,0.3,0.1,0.5,0.2,0.6
				c0.2,0.1,0.4,0.3,0.7,0.3C106.8,123.9,107.1,123.9,107.5,123.9z"/>
		</g>
	</g>
</g>
</svg>
